# xmcd
#
# Track frame offsets:
#	150
#	16029
#	31882
#	45491
#	60425
#	75711
#	90387
#	105312
#	121292
#	139293
#	153642
#	168271
#	182339
#	199652
#	211765
#
# Disc length: 3039 seconds
#
# Revision: 1
# Processed by: cddbd v1.5.2PL0 Copyright (c) Steve Scherf et al.
# Submitted via: audiograbber 1.83.01
#
DISCID=ad0bdd0f
DTITLE=Various Artist - COUNTRY APRIL 2015
DYEAR=2015
DGENRE=Country
TTITLE0=MITCH GOUDY - BLOW THESE SPEAKERS
TTITLE1=CARRIE UNDERWOOD - LITTLE TOT GUNS
TTITLE2=MICHAEL RAY - KISS YOU IN THE MORNING
TTITLE3=DAVID FANNING - DOIN COUNTRY RIGHT
TTITLE4=LIVE WIRE - QUIT YOU
TTITLE5=MONTGOMERY GENTRY - TITTYS BEER
TTITLE6=ERIC CHURCH - LIKE A WREAKING BALL
TTITLE7=JOHN KING - TONIGHT TONIGHT
TTITLE8=TRISHA TEARWOOD - I REMEMBER YOU
TTITLE9=DAN and SHAY - NOTHIN LIKE YOU
TTITLE10=FLORIDA GEORGIA LINE - SIPPIN ON FIRE
TTITLE11=GARY ALLEN - SUN DAZE
TTITLE12=ASHLEY MOORE - LONELY TONIGHT
TTITLE13=JEFF BATES - AFTER THE FIRE IS GONE
TTITLE14=SHEPPARD - GERONIMO
EXTD=
EXTT0=
EXTT1=
EXTT2=
EXTT3=
EXTT4=
EXTT5=
EXTT6=
EXTT7=
EXTT8=
EXTT9=
EXTT10=
EXTT11=
EXTT12=
EXTT13=
EXTT14=
PLAYORDER=
